<svg xmlns="http://www.w3.org/2000/svg" width="14.56" height="14.56" viewBox="0 0 14.56 14.56">
  <defs>
    <style>
      .cls-1 {
        fill: #4692f5;
        fill-rule: evenodd;
      }
    </style>
  </defs>
  <path id="中午" class="cls-1" d="M3661.24,1947a0.58,0.58,0,0,0-.58-0.58h-1.37a0.58,0.58,0,0,0,0,1.16h1.37A0.58,0.58,0,0,0,3661.24,1947Zm8.61-3.27a0.589,0.589,0,0,0,.42-0.17l0.89-.89a0.574,0.574,0,0,0,.16-0.41,0.558,0.558,0,0,0-.16-0.41,0.617,0.617,0,0,0-.42-0.18h0a0.594,0.594,0,0,0-.41.18l-0.89.88a0.6,0.6,0,0,0,0,.83A0.583,0.583,0,0,0,3669.85,1943.73Zm-3.85-1.66h0a0.58,0.58,0,0,0,.58-0.58v-1.2a0.58,0.58,0,0,0-1.16,0v1.2A0.58,0.58,0,0,0,3666,1942.07Zm-5.11.64,0.89,0.72a0.533,0.533,0,0,0,.36.13h0.01a0.568,0.568,0,0,0,.45-0.21,0.586,0.586,0,0,0-.09-0.82l-0.89-.72a0.565,0.565,0,0,0-.81.08,0.556,0.556,0,0,0-.13.43A0.565,0.565,0,0,0,3660.89,1942.71Zm9.54,7.9h0a0.573,0.573,0,0,0-.82,0,0.566,0.566,0,0,0-.17.41,0.583,0.583,0,0,0,.17.41l0.72,0.72a0.594,0.594,0,0,0,.41.18,0.617,0.617,0,0,0,.42-0.18,0.61,0.61,0,0,0,.17-0.41,0.583,0.583,0,0,0-.17-0.41Zm-8.45-.17a0.583,0.583,0,0,0-.41.17l-0.72.72a0.59,0.59,0,0,0,.41,1,0.594,0.594,0,0,0,.41-0.18l0.72-.72a0.583,0.583,0,0,0,.17-0.41A0.58,0.58,0,0,0,3661.98,1950.44Zm10.73-4.02h-1.37a0.58,0.58,0,0,0,0,1.16h1.37A0.58,0.58,0,0,0,3672.71,1946.42Zm-6.71,5.59a0.58,0.58,0,0,0-.58.58v1.12a0.58,0.58,0,0,0,1.16,0v-1.12A0.58,0.58,0,0,0,3666,1952.01Zm3.14-8.15a4.527,4.527,0,1,0,1.32,3.19A4.468,4.468,0,0,0,3669.14,1943.86Zm0.16,3.19a3.355,3.355,0,1,1-3.36-3.35A3.367,3.367,0,0,1,3669.3,1947.05Z" transform="translate(-3658.72 -1939.72)"/>
</svg>
