<svg xmlns="http://www.w3.org/2000/svg" width="24.41" height="21.22" viewBox="0 0 24.41 21.22">
  <defs>
    <style>
      .cls-1 {
        fill: #4692f5;
        fill-rule: evenodd;
      }
    </style>
  </defs>
  <path id="形状_1239" data-name="形状 1239" class="cls-1" d="M3678.64,2063.36a0.885,0.885,0,0,0-1.21.32l-1.38,2.37a0.883,0.883,0,0,0,.33,1.2,0.9,0.9,0,0,0,1.22-.32l1.37-2.37A0.874,0.874,0,0,0,3678.64,2063.36Zm5.16,0a0.883,0.883,0,0,0-.44-0.12,0.914,0.914,0,0,0-.78.44l-1.37,2.37a0.871,0.871,0,0,0,.32,1.2,0.894,0.894,0,0,0,1.22-.32l1.37-2.37A0.871,0.871,0,0,0,3683.8,2063.36Zm7.57-10.84a5.377,5.377,0,0,0-3.75-1.58h-0.09l-0.03-.08a7.758,7.758,0,0,0-7.14-4.7h-0.01a7.683,7.683,0,0,0-2.64.46,7.82,7.82,0,0,0-2.25,1.27,7.717,7.717,0,0,0-2.68,4.33l-0.02.1-0.1.01a4.642,4.642,0,0,0,.48,9.26h14.42A5.318,5.318,0,0,0,3691.37,2052.52Zm-3.81,7.3h-14.42a2.887,2.887,0,0,1-2.89-2.87,2.849,2.849,0,0,1,.74-1.92,2.935,2.935,0,0,1,1.85-.94l1.38-.14,0.3-1.35a5.991,5.991,0,0,1,5.83-4.67h0.01a5.968,5.968,0,0,1,5.5,3.62l0.49,1.15,1.25,0.01A3.555,3.555,0,1,1,3687.56,2059.82Z" transform="translate(-3668.5 -2046.16)"/>
</svg>
