<svg xmlns="http://www.w3.org/2000/svg" width="24.41" height="21.22" viewBox="0 0 24.41 21.22">
  <defs>
    <style>
      .cls-1 {
        fill: #4692f5;
        fill-rule: evenodd;
      }
    </style>
  </defs>
  <path id="形状_1240" data-name="形状 1240" class="cls-1" d="M3748.37,1991.71a5.334,5.334,0,0,0-3.75-1.58h-0.09l-0.03-.09a7.774,7.774,0,0,0-7.14-4.7h-0.01a7.68,7.68,0,0,0-4.89,1.74,7.717,7.717,0,0,0-2.68,4.33l-0.02.1-0.1.01a4.642,4.642,0,0,0,.48,9.26h14.42a5.348,5.348,0,0,0,5.36-5.33A5.258,5.258,0,0,0,3748.37,1991.71Zm-3.81,7.3h-14.42a2.879,2.879,0,0,1-2.88-2.87,2.817,2.817,0,0,1,.73-1.93,2.875,2.875,0,0,1,1.85-.93l1.38-.14,0.3-1.35a6,6,0,0,1,5.83-4.68h0.01a5.962,5.962,0,0,1,5.5,3.63l0.49,1.15,1.25,0.01A3.555,3.555,0,1,1,3744.56,1999.01Zm-4.9,4.8h-0.88l0.44-.71a0.567,0.567,0,0,0-.23-0.8,0.643,0.643,0,0,0-.85.21l-0.44.71-0.43-.71a0.661,0.661,0,0,0-.86-0.21,0.567,0.567,0,0,0-.23.8l0.44,0.71h-0.87a0.587,0.587,0,1,0,0,1.17h0.87l-0.44.71a0.582,0.582,0,0,0-.06.45,0.626,0.626,0,0,0,.29.35,0.7,0.7,0,0,0,.31.07,0.618,0.618,0,0,0,.55-0.29l0.43-.71,0.44,0.71a0.6,0.6,0,0,0,.54.29,0.643,0.643,0,0,0,.31-0.07,0.589,0.589,0,0,0,.29-0.35,0.542,0.542,0,0,0-.06-0.45l-0.44-.71h0.88a0.611,0.611,0,0,0,.62-0.59A0.6,0.6,0,0,0,3739.66,2003.81Z" transform="translate(-3725.5 -1985.34)"/>
</svg>
