<svg xmlns="http://www.w3.org/2000/svg" width="21.38" height="21.38" viewBox="0 0 21.38 21.38">
  <defs>
    <style>
      .cls-1 {
        fill: #4692f5;
        fill-rule: evenodd;
      }
    </style>
  </defs>
  <path id="形状_1237" data-name="形状 1237" class="cls-1" d="M3624,1990.98a5.02,5.02,0,1,0,5.02,5.02A5.023,5.023,0,0,0,3624,1990.98Zm0,1.11a3.91,3.91,0,1,1-3.91,3.91A3.922,3.922,0,0,1,3624,1992.09Zm-0.31-2.56c0.21-.01.41-0.01,0.62,0l0.34,0.01v-3.58a0.65,0.65,0,0,0-1.3,0v3.58Zm5.11,2.11,0.22,0.25,2.54-2.53a0.678,0.678,0,0,0,.19-0.46,0.66,0.66,0,0,0-.19-0.46,0.642,0.642,0,0,0-.46-0.19h0a0.678,0.678,0,0,0-.46.19l-2.53,2.54,0.25,0.23A5.929,5.929,0,0,1,3628.8,1991.64Zm-9.82.25,0.23-.25a4.363,4.363,0,0,1,.43-0.43l0.25-.23-2.53-2.54h0a0.658,0.658,0,0,0-.92,0,0.642,0.642,0,0,0-.19.46,0.678,0.678,0,0,0,.19.46Zm4.71,10.58-0.34-.01v3.58a0.65,0.65,0,0,0,1.3,0v-3.58l-0.34.01C3624.1,2002.48,3623.9,2002.48,3623.69,2002.47Zm5.33-2.36-0.22.25a5.929,5.929,0,0,1-.44.43l-0.25.23,2.53,2.54a0.678,0.678,0,0,0,.46.19h0a0.649,0.649,0,0,0,.65-0.65,0.678,0.678,0,0,0-.19-0.46Zm5.02-4.76h-3.58l0.01,0.34c0.01,0.1.01,0.21,0.01,0.31s0,0.21-.01.31l-0.01.34h3.58A0.65,0.65,0,0,0,3634.04,1995.35Zm-16.51.96c-0.01-.1-0.01-0.21-0.01-0.31s0-.21.01-0.31l0.01-.34h-3.58a0.65,0.65,0,0,0,0,1.3h3.58Zm1.68,4.05-0.23-.25-2.54,2.53a0.678,0.678,0,0,0-.19.46,0.649,0.649,0,0,0,.65.65,0.678,0.678,0,0,0,.46-0.19l2.53-2.54-0.25-.23A4.363,4.363,0,0,1,3619.21,2000.36Z" transform="translate(-3613.31 -1985.31)"/>
</svg>
