<svg xmlns="http://www.w3.org/2000/svg" width="14.76" height="14.76" viewBox="0 0 14.76 14.76">
  <defs>
    <style>
      .cls-1 {
        fill: #4692f5;
        fill-rule: evenodd;
      }
    </style>
  </defs>
  <path id="早晨" class="cls-1" d="M3605.09,1943.4a0.566,0.566,0,0,0,.8-0.8l-0.8-.81a0.577,0.577,0,0,0-.8.01,0.567,0.567,0,0,0,0,.8Zm4.41-1.5a0.568,0.568,0,0,0,.57-0.56v-1.14a0.57,0.57,0,0,0-1.14,0v1.14A0.568,0.568,0,0,0,3609.5,1941.9Zm4.41,1.5,0.8-.8a0.569,0.569,0,0,0-.8-0.81l-0.8.81a0.544,0.544,0,0,0-.17.4,0.561,0.561,0,0,0,.17.4A0.567,0.567,0,0,0,3613.91,1943.4Zm2.4,3.03h-1.14a0.57,0.57,0,0,0,0,1.14h1.14A0.57,0.57,0,0,0,3616.31,1946.43Zm-1.14,2.27h-1.47a4.533,4.533,0,1,0-8.41,0h-1.46a0.565,0.565,0,1,0,0,1.13h5.64a0.561,0.561,0,0,0-.4.17l-1.11,1.13a0.582,0.582,0,0,0-.15.56,0.572,0.572,0,0,0,.41.4,0.563,0.563,0,0,0,.55-0.16l0.16-.17v2.03a0.57,0.57,0,1,0,1.14,0v-2.02l0.17,0.17a0.577,0.577,0,0,0,.8-0.01,0.567,0.567,0,0,0-.01-0.8l-1.16-1.14a0.552,0.552,0,0,0-.39-0.16h5.69A0.565,0.565,0,1,0,3615.17,1948.7Zm-2.72,0h-5.97l0.05-.03A3.406,3.406,0,1,1,3612.45,1948.7Zm-8.05-1.7a0.576,0.576,0,0,0-.57-0.57h-1.13a0.57,0.57,0,1,0,0,1.14h1.13A0.576,0.576,0,0,0,3604.4,1947Z" transform="translate(-3602.12 -1939.62)"/>
</svg>
