<svg xmlns="http://www.w3.org/2000/svg" width="23.34" height="16.44" viewBox="0 0 23.34 16.44">
  <defs>
    <style>
      .cls-1 {
        fill: #4692f5;
        fill-rule: evenodd;
      }
    </style>
  </defs>
  <path id="形状_1238" data-name="形状 1238" class="cls-1" d="M3631.02,2104.38l-0.08-.02-0.03-.07a7.738,7.738,0,0,0-7.14-5.01h-0.1a7.732,7.732,0,0,0-7.31,5.22l-0.03.09-0.09.02a5.023,5.023,0,0,0-3.18,1.91,5.107,5.107,0,0,0,4.04,8.22h2.05l0.05,0.03a3.779,3.779,0,0,0,2.5.95h7.89A5.76,5.76,0,0,0,3631.02,2104.38Zm-13.11,7.55a3.806,3.806,0,0,0,.12.95l0.05,0.19h-1.01a3.433,3.433,0,0,1-.56-6.82l1.07-.19,0.35-1.02a6.07,6.07,0,0,1,11.03-1.01l0.11,0.19-0.23.03a5.771,5.771,0,0,0-2.87,1.23,5.834,5.834,0,0,0-1.82,2.56l-0.03.11h-2.42A3.786,3.786,0,0,0,3617.91,2111.93Zm15.75-1.5a4.1,4.1,0,0,1-4.07,3.63h-7.89a2.125,2.125,0,0,1,0-4.25h3.6l0.42-1.21A4.1,4.1,0,0,1,3633.66,2110.43Z" transform="translate(-3612 -2099.28)"/>
</svg>
