<svg xmlns="http://www.w3.org/2000/svg" width="20.72" height="18.06" viewBox="0 0 20.72 18.06">
  <defs>
    <style>
      .cls-1 {
        fill: #4692f5;
        fill-rule: evenodd;
      }
    </style>
  </defs>
  <path id="形状_1238" data-name="形状 1238" class="cls-1" d="M3804.63,2056.78a5.55,5.55,0,0,0-3.48-7.04,5.558,5.558,0,0,1-9.62,0,5.558,5.558,0,1,0,.68,10.24,5.493,5.493,0,0,0,2.35-2.2A5.554,5.554,0,0,0,3804.63,2056.78Zm-11.09-.5a4.016,4.016,0,0,1-5.07,2.51,4,4,0,0,1,1.29-7.79,4.132,4.132,0,0,1,1.28.21A4.006,4.006,0,0,1,3793.54,2056.28Zm7.6,2.3a3.947,3.947,0,0,1-3.05.21,4,4,0,0,1-.49-7.38,4.017,4.017,0,0,1,3.05-.2,3.953,3.953,0,0,1,2.3,2.02A4,4,0,0,1,3801.14,2058.58Zm-6.58-10.83a0.9,0.9,0,1,0-.89-0.9A0.9,0.9,0,0,0,3794.56,2047.75Zm-9.19,0a0.9,0.9,0,1,0-.9-0.9A0.894,0.894,0,0,0,3785.37,2047.75Zm18.39,0a0.9,0.9,0,1,0-.9-0.9A0.894,0.894,0,0,0,3803.76,2047.75Zm-9.2,14.5a0.9,0.9,0,1,0,.9.9A0.894,0.894,0,0,0,3794.56,2062.25Zm-9.19,0a0.9,0.9,0,1,0,.89.9A0.9,0.9,0,0,0,3785.37,2062.25Zm18.39,0a0.9,0.9,0,1,0,.89.9A0.9,0.9,0,0,0,3803.76,2062.25Z" transform="translate(-3784.19 -2045.97)"/>
</svg>
