<svg xmlns="http://www.w3.org/2000/svg" width="24.12" height="20.5" viewBox="0 0 24.12 20.5">
  <defs>
    <style>
      .cls-1 {
        fill: #4692f5;
        fill-rule: evenodd;
      }
    </style>
  </defs>
  <path id="形状_1238" data-name="形状 1238" class="cls-1" d="M3629.17,2044.63l0.19,0.01v-2.84a0.555,0.555,0,1,0-1.11,0v2.84l0.19-.01A4.448,4.448,0,0,1,3629.17,2044.63Zm3.31,1.74,0.11,0.14,2.06-1.73a0.514,0.514,0,0,0,.2-0.38,0.563,0.563,0,0,0-.13-0.41,0.539,0.539,0,0,0-.38-0.19,0.5,0.5,0,0,0-.4.13l-2.12,1.77,0.16,0.14A5.043,5.043,0,0,1,3632.48,2046.37Zm3.49,2.03h-2.53l0.03,0.21a4.373,4.373,0,0,1,.06.72v0.18h2.44A0.555,0.555,0,1,0,3635.97,2048.4Zm-1.63,5.71a0.539,0.539,0,0,0,.38-0.19,0.563,0.563,0,0,0,.13-0.41,0.532,0.532,0,0,0-.2-0.38l-1.74-1.46-0.11.18a5.736,5.736,0,0,1-.36.5,3.183,3.183,0,0,0-.4-0.23,4.278,4.278,0,0,0,.97-2.73,4.343,4.343,0,0,0-7.5-2.97l-0.34-.09a4.336,4.336,0,0,1,.47-0.49l0.15-.14-2.11-1.77h0a0.557,0.557,0,0,0-.79.07,0.546,0.546,0,0,0,.07.78l1.73,1.45a6.46,6.46,0,0,0-7.45,5.33,5.1,5.1,0,0,0,.27,10.2h12.2a5.109,5.109,0,0,0,5.1-5.1,5.184,5.184,0,0,0-.69-2.58,0.526,0.526,0,0,0,.17.04A0.433,0.433,0,0,0,3634.34,2054.11Zm-4.63,6.22h-12.29a3.675,3.675,0,0,1,.09-7.35h0.7l0.36-.02,0.01-.47a5.017,5.017,0,0,1,4.92-4.93h0.11a5.049,5.049,0,0,1,5.04,5.06v0.36h1.15A3.675,3.675,0,0,1,3629.71,2060.33Zm-1.04-13.83a2.9,2.9,0,0,1,2.89,2.89,2.867,2.867,0,0,1-1.05,2.23,4.6,4.6,0,0,0-.52-0.06,6.4,6.4,0,0,0-3.04-4.49A2.843,2.843,0,0,1,3628.67,2046.5Z" transform="translate(-3612.41 -2041.25)"/>
</svg>
