<svg xmlns="http://www.w3.org/2000/svg" width="24.41" height="21.06" viewBox="0 0 24.41 21.06">
  <defs>
    <style>
      .cls-1 {
        fill: #4692f5;
        fill-rule: evenodd;
      }
    </style>
  </defs>
  <path id="形状_1237" data-name="形状 1237" class="cls-1" d="M3805.37,1991.32a5.377,5.377,0,0,0-3.75-1.58h-0.09l-0.03-.08a7.758,7.758,0,0,0-7.14-4.7h-0.01a7.683,7.683,0,0,0-2.64.46,7.592,7.592,0,0,0-2.25,1.27,7.717,7.717,0,0,0-2.68,4.33l-0.02.1-0.1.01a4.642,4.642,0,0,0,.48,9.26h14.42a5.346,5.346,0,0,0,5.36-5.32A5.264,5.264,0,0,0,3805.37,1991.32Zm-3.81,7.3h-14.42a2.868,2.868,0,0,1-2.15-4.79,2.935,2.935,0,0,1,1.85-.94l1.38-.14,0.3-1.35a5.991,5.991,0,0,1,5.83-4.67h0.01a5.968,5.968,0,0,1,5.5,3.62l0.49,1.15,1.25,0.01A3.555,3.555,0,1,1,3801.56,1998.62Zm-6.97,5.97h-4.78a0.726,0.726,0,0,0-.72.73,0.717,0.717,0,0,0,.72.72h4.78a0.694,0.694,0,0,0,.51-0.21,0.711,0.711,0,0,0,.21-0.51A0.726,0.726,0,0,0,3794.59,2004.59Zm-2.17-1.38a0.738,0.738,0,0,0,.2-0.5v-0.04a0.713,0.713,0,0,0-.71-0.71h-3.43a0.713,0.713,0,0,0-.71.71v0.04a0.7,0.7,0,0,0,.71.7h3.44A0.72,0.72,0,0,0,3792.42,2003.21Zm7,1.38h-2.28a0.726,0.726,0,0,0-.72.73,0.717,0.717,0,0,0,.72.72h2.28a0.726,0.726,0,0,0,.73-0.72A0.734,0.734,0,0,0,3799.42,2004.59Zm1.49-2.63h-6.49a0.726,0.726,0,0,0-.72.73,0.717,0.717,0,0,0,.72.72h6.49a0.717,0.717,0,0,0,.72-0.72A0.726,0.726,0,0,0,3800.91,2001.96Z" transform="translate(-3782.5 -1984.97)"/>
</svg>
