<svg xmlns="http://www.w3.org/2000/svg" width="14.76" height="14.76" viewBox="0 0 14.76 14.76">
  <defs>
    <style>
      .cls-1 {
        fill: #4692f5;
        fill-rule: evenodd;
      }
    </style>
  </defs>
  <path id="黄昏" class="cls-1" d="M3727.91,1943.4l0.8-.8a0.569,0.569,0,0,0-.8-0.81l-0.8.81a0.544,0.544,0,0,0-.17.4,0.561,0.561,0,0,0,.17.4A0.567,0.567,0,0,0,3727.91,1943.4Zm-8.82,0a0.566,0.566,0,0,0,.8-0.8l-0.8-.81a0.577,0.577,0,0,0-.8.01,0.567,0.567,0,0,0,0,.8Zm4.41-1.5a0.568,0.568,0,0,0,.57-0.56v-1.14a0.57,0.57,0,0,0-1.14,0v1.14A0.568,0.568,0,0,0,3723.5,1941.9Zm-5.1,5.1a0.576,0.576,0,0,0-.57-0.57h-1.13a0.57,0.57,0,1,0,0,1.14h1.13A0.576,0.576,0,0,0,3718.4,1947Zm10.77,1.7h-1.46a4.537,4.537,0,1,0-8.42,0h-1.46a0.565,0.565,0,1,0,0,1.13h5.66a0.574,0.574,0,0,0-.56.57v2.03l-0.16-.16a0.559,0.559,0,0,0-.8-0.01,0.567,0.567,0,0,0-.01.8l1.11,1.13a0.561,0.561,0,0,0,.4.17h0.01a0.552,0.552,0,0,0,.39-0.16l1.16-1.13a0.564,0.564,0,0,0,.15-0.55,0.546,0.546,0,0,0-.39-0.4,0.554,0.554,0,0,0-.55.14l-0.17.17v-2.03a0.574,0.574,0,0,0-.56-0.57h5.66A0.565,0.565,0,1,0,3729.17,1948.7Zm-2.72,0h-5.97l0.06-.03A3.4,3.4,0,1,1,3726.45,1948.7Zm3.85-2.27h-1.13a0.57,0.57,0,0,0,0,1.14h1.13A0.57,0.57,0,0,0,3730.3,1946.43Z" transform="translate(-3716.12 -1939.62)"/>
</svg>
